PathFileType	4	(X/Y/Z)	C:\Users\Basilio\Documents\Thesis Gigler\squatting_fais\c3dfiles\038\SLS_back_pre3\markers_experimental.trc
DataRate	CameraRate	NumFrames	NumMarkers	Units	OrigDataRate	OrigDataStartFrame	OrigNumFrames
200.000000	200.000000	4	63	mm	200.000000	704	1878
Frame#	Time	FHD			LBHD			RBHD			C7			T10			CLAV			LSHO			LUUPA			LMUPA			LDUPA			LLEP			LMEP			LRAD			LUL			LRFIN			RSHO			RUPA1			RMUPA			RDUPA			RLEP			RMEP			RRAD			RUL			RUFIN			LASI			RASI			USACR			LSACR			RSACR			LTHI1			LTHI2			LTHI3			LTHI4			LLFC			LMFC			LTIB1			LTIB2			LTIB3			LTIB4			LLMAL			LMMAL			LHEE			LMT1			LMT2			LMT5			RTHI			RTHI2			RTHI3			RTHI4			RLFC			RMFC			RTIB1			RTIB2			RTIB3			RTIB4			RLMAL			RMMAL			RHEE			RMT1			RMT2			RMT5			*61			*62			
		X1	Y1	Z1	X2	Y2	Z2	X3	Y3	Z3	X4	Y4	Z4	X5	Y5	Z5	X6	Y6	Z6	X7	Y7	Z7	X8	Y8	Z8	X9	Y9	Z9	X10	Y10	Z10	X11	Y11	Z11	X12	Y12	Z12	X13	Y13	Z13	X14	Y14	Z14	X15	Y15	Z15	X16	Y16	Z16	X17	Y17	Z17	X18	Y18	Z18	X19	Y19	Z19	X20	Y20	Z20	X21	Y21	Z21	X22	Y22	Z22	X23	Y23	Z23	X24	Y24	Z24	X25	Y25	Z25	X26	Y26	Z26	X27	Y27	Z27	X28	Y28	Z28	X29	Y29	Z29	X30	Y30	Z30	X31	Y31	Z31	X32	Y32	Z32	X33	Y33	Z33	X34	Y34	Z34	X35	Y35	Z35	X36	Y36	Z36	X37	Y37	Z37	X38	Y38	Z38	X39	Y39	Z39	X40	Y40	Z40	X41	Y41	Z41	X42	Y42	Z42	X43	Y43	Z43	X44	Y44	Z44	X45	Y45	Z45	X46	Y46	Z46	X47	Y47	Z47	X48	Y48	Z48	X49	Y49	Z49	X50	Y50	Z50	X51	Y51	Z51	X52	Y52	Z52	X53	Y53	Z53	X54	Y54	Z54	X55	Y55	Z55	X56	Y56	Z56	X57	Y57	Z57	X58	Y58	Z58	X59	Y59	Z59	X60	Y60	Z60	X61	Y61	Z61	X62	Y62	Z62	X63	Y63	Z63	

705	3.52	-188.8905639648438	1732.681518554688	-1042.905151367188	-344.9237976074219	1685.74072265625	-1102.111694335938	-335.9705810546876	1672.20703125	-957.9677734375002	-393.7562255859376	1508.621704101563	-1032.572143554688	-405.9341735839845	1228.06982421875	-1025.9423828125	-251.0869293212891	1482.543579101563	-1041.695678710938	-314.9085083007813	1527.1318359375	-1182.77783203125	-173.8500213623047	1457.33935546875	-1334.380493164063	-141.1455841064453	1489.888793945313	-1313.087646484375	-106.6788406372071	1462.290771484375	-1353.2587890625	-44.57111358642579	1463.110595703125	-1364.327514648438	-33.85327911376954	1387.705932617188	-1341.581909179688	240.4415130615235	1459.411010742188	-1257.205200195313	251.1190948486329	1465.483154296875	-1327.782104492188	315.3999023437501	1492.041015625	-1242.164916992188	-304.1690979003907	1519.674194335938	-899.427185058594	-151.7222595214844	1486.94091796875	-776.6033325195315	-115.4855194091797	1499.418090820313	-806.758483886719	-84.23845672607423	1481.635375976563	-757.8368530273439	-10.71904468536377	1478.841674804688	-746.3578491210939	-3.952833890914918	1401.316772460938	-767.4980468750001	264.3519287109376	1485.485961914063	-833.8293457031252	276.7047424316407	1492.910888671875	-764.6942749023439	341.7413330078126	1525.156860351563	-837.170104980469	-237.4900207519532	1024.387084960938	-1119.962280273438	-266.4958496093751	1047.666137695313	-872.3112792968752	-418.5694580078126	1087.985717773438	-1018.845336914063	-429.4582519531251	1056.819702148438	-1046.418579101563	-435.2466735839845	1060.035400390625	-989.5730590820315	-229.2435607910157	709.4923095703126	-1163.895629882813	-186.9093170166016	635.4689941406251	-1151.58935546875	-145.0926361083985	648.6395263671876	-1126.767578125	-208.9691009521485	583.1332397460939	-1133.114624023438	-201.7067108154297	524.2403564453126	-1120.033447265625	-197.9458465576172	526.0239868164064	-1002.829772949219	-210.2053527832032	342.1277770996094	-1028.5048828125	-260.3796691894532	304.6319274902344	-1091.342895507813	-226.8156127929688	293.7171936035157	-1059.595581054688	-262.3280944824219	225.830795288086	-1023.460083007813	-377.8706054687501	119.3349609375	-1037.35595703125	-338.5873413085938	133.3575592041016	-964.6818847656252	-432.8459472656251	100.8989562988282	-980.665222167969	-233.5886688232422	45.54304504394532	-974.5383911132815	-225.4636840820313	45.38982772827149	-1024.720947265625	-270.3108825683594	36.24697494506837	-1071.322143554688	-313.2299804687501	778.8796386718752	-798.973327636719	-277.2090759277344	723.1347045898439	-786.3235473632815	-244.2490539550782	723.7727050781251	-788.226501464844	-306.1312255859376	642.3446044921876	-792.7813110351565	-305.8611145019532	535.6087646484376	-801.8121337890627	-294.4748229980469	522.1168823242189	-914.2109375000002	-422.7987670898439	410.7738342285157	-833.3455810546877	-532.6944580078126	447.6398010253907	-825.2288818359377	-508.3145141601564	407.0097045898439	-824.0278930664065	-543.0553588867189	371.6582336425782	-857.5461425781252	-678.5632324218751	380.2799377441407	-857.1992187500002	-647.9880981445314	342.9923095703126	-925.4126586914065	-705.3276977539064	420.938201904297	-938.5996093750002	-709.2921142578126	207.6708984375001	-900.9993896484377	-721.7358398437501	215.4807891845704	-855.8360595703127	-756.5347900390626	259.6784362792969	-828.5535888671877	nan	nan	nan	nan	nan	nan	
706	3.525	-188.7850494384766	1732.323608398438	-1043.134765625	-344.8635864257813	1685.14453125	-1102.184326171875	-335.7939758300782	1671.66064453125	-958.114196777344	-393.5799255371095	1507.958862304688	-1032.681396484375	-406.1378479003907	1227.499755859375	-1025.940673828125	-250.8304138183594	1481.94873046875	-1041.925048828125	-314.9761962890626	1526.419799804688	-1182.72607421875	-173.7927551269532	1456.815307617188	-1334.3603515625	-140.9186401367188	1489.260009765625	-1313.078369140625	-106.9169921875	1462.047119140625	-1353.225952148438	-44.50574493408204	1462.506591796875	-1364.20166015625	-33.78607177734376	1387.164184570313	-1341.479736328125	240.662582397461	1458.656860351563	-1256.904174804688	251.3043518066407	1464.901733398438	-1327.609497070313	315.4401245117188	1491.475830078125	-1241.874145507813	-304.0911254882813	1519.040649414063	-899.5665283203127	-151.7171478271485	1486.486572265625	-776.722106933594	-115.3456573486328	1498.998779296875	-806.9707641601565	-84.14412689208986	1481.161987304688	-757.9348144531251	-10.62866592407227	1478.4560546875	-746.5223999023439	-3.817349433898927	1400.869873046875	-767.6828002929689	264.5474548339844	1485.103759765625	-833.9805908203127	276.6973876953126	1492.776977539063	-764.5407104492189	341.7941284179688	1524.833374023438	-837.4082031250002	-237.5294952392579	1024.301879882813	-1119.878295898438	-266.8702392578126	1046.966918945313	-872.148620605469	-418.6640930175782	1087.230102539063	-1018.748962402344	-429.7528076171876	1056.200805664063	-1046.479248046875	-435.3922729492189	1059.56982421875	-989.528015136719	-228.9333496093751	709.0430297851564	-1163.976440429688	-186.543197631836	635.0494384765626	-1151.753662109375	-144.6288299560547	648.3950195312501	-1126.881958007813	-208.4089813232422	582.8084716796876	-1133.298461914063	-201.3954620361329	523.5288696289064	-1120.345458984375	-197.3449401855469	525.7186279296876	-1003.052734375	-209.8483276367188	341.8762207031251	-1028.548217773438	-260.0236816406251	304.4517517089844	-1091.443237304688	-226.4512023925782	293.7090148925782	-1059.578125	-262.1109619140626	225.5384216308594	-1023.557312011719	-377.8602294921876	119.3072357177735	-1037.440307617188	-338.5450439453126	133.3204650878907	-964.669616699219	-432.8245239257814	100.9041213989258	-980.606872558594	-233.5785675048829	45.58057403564454	-974.541931152344	-225.5936737060547	45.27899169921876	-1024.813598632813	-270.3082885742188	36.20305633544923	-1071.311767578125	-313.5305786132813	778.2247314453127	-799.030944824219	-277.5846862792969	722.6129760742189	-786.2325439453127	-244.455795288086	723.1409912109376	-788.3537597656252	-306.3279724121094	641.6437988281251	-792.7097167968752	-305.8666381835938	535.2437744140626	-801.6938476562502	-294.6921386718751	521.6085205078126	-914.222351074219	-423.0291137695314	410.0539855957032	-833.2413330078127	-532.9014282226564	447.1283569335939	-825.1806640625002	-508.6551513671876	406.3600463867189	-824.0061035156252	-543.2779541015626	370.9791870117188	-857.5083007812502	-678.5884399414064	379.9140930175782	-856.9000244140627	-648.2236938476564	342.4948425292969	-925.2886352539065	-705.1663818359376	420.5691528320314	-938.165466308594	-709.6860351562501	206.8863067626954	-900.859069824219	-722.0891723632814	215.0410461425782	-855.745788574219	-756.9298095703126	259.0907897949219	-828.5105590820315	nan	nan	nan	nan	nan	nan	
707	3.53	-188.7147979736328	1731.521850585938	-1043.240234375	-344.6351623535157	1684.534057617188	-1102.25927734375	-335.6489257812501	1670.996215820313	-958.1567382812502	-393.5749816894532	1507.440063476563	-1032.723022460938	-406.2296447753907	1226.876708984375	-1026.013549804688	-250.7562408447266	1481.35107421875	-1042.019287109375	-314.9078063964844	1525.852172851563	-1182.78759765625	-173.7120056152344	1456.3857421875	-1334.352661132813	-140.8326110839844	1488.647094726563	-1313.069458007813	-106.7865142822266	1461.509643554688	-1353.189453125	-44.34616088867188	1461.875732421875	-1364.145263671875	-33.63962936401368	1386.582885742188	-1341.361572265625	240.6854095458985	1458.05322265625	-1256.81201171875	251.3791198730469	1464.442749023438	-1327.327758789063	315.4557189941407	1490.95849609375	-1241.594970703125	-304.0593872070313	1518.491455078125	-899.7073364257815	-151.4154968261719	1485.866577148438	-776.891296386719	-115.2273025512696	1498.425415039063	-807.1807861328127	-83.89466094970705	1480.676025390625	-758.1731567382814	-10.44568729400635	1478.097045898438	-746.6232910156251	-3.489696979522706	1400.822265625	-767.8479003906251	264.6759643554688	1484.701049804688	-834.1839599609377	276.8032226562501	1492.522338867188	-764.7075195312501	341.9235839843751	1524.375732421875	-837.6573486328127	-237.9996032714844	1023.43115234375	-1119.926391601563	-267.2824707031251	1046.394409179688	-872.0722656250002	-418.8200988769532	1086.525146484375	-1018.76318359375	-429.8483276367189	1055.676391601563	-1046.396240234375	-435.668426513672	1059.012451171875	-989.6013183593752	-228.5680389404297	708.5009765625001	-1164.12060546875	-186.2283172607422	634.6528930664064	-1151.874389648438	-144.1649322509766	648.2286376953126	-1127.015869140625	-207.7734680175782	582.3452758789064	-1133.447265625	-200.6453094482422	523.1600952148439	-1120.510620117188	-196.5463409423829	525.4503173828126	-1003.130493164063	-209.4851379394532	341.4642944335938	-1028.527099609375	-259.5652465820313	304.1533813476563	-1091.50341796875	-226.054428100586	293.1721191406251	-1059.667602539063	-261.8996582031251	225.3320007324219	-1023.633483886719	-377.8658752441407	119.2577133178711	-1037.413452148438	-338.4733276367188	133.3131256103516	-964.7131347656252	-432.8458251953126	100.9190292358399	-980.6093750000002	-233.6193847656251	45.69968032836915	-974.509948730469	-225.5883026123047	45.24079895019532	-1024.773193359375	-270.2557678222657	36.21781158447266	-1071.314697265625	-313.7961120605469	777.6414794921877	-799.0366210937502	-277.8489379882813	722.0451049804689	-786.3929443359377	-244.7050323486329	722.4839477539064	-788.3969726562502	-306.5384826660157	640.9476928710939	-792.665466308594	-306.3389892578126	534.5407104492189	-801.7608642578127	-295.1872558593751	521.0044555664064	-914.1857910156252	-423.245086669922	409.6445922851564	-833.3964843750002	-533.0979003906251	446.5564880371095	-825.1157226562502	-508.9800109863282	405.8796386718751	-823.8536376953127	-543.6920166015626	370.2341003417969	-857.4671020507815	-678.9063720703126	379.2873840332032	-856.816589355469	-648.5533447265626	341.8965454101563	-925.1622314453127	-705.6156005859376	419.958953857422	-938.0814208984377	-710.0638427734376	206.5447692871094	-900.8919067382815	-722.3391113281251	214.0808868408204	-855.421813964844	-757.1896362304689	258.6088562011719	-828.4771728515627	nan	nan	nan	nan	nan	nan	
708	3.535	-188.6209716796875	1730.847045898438	-1043.23828125	-344.8536987304688	1683.495849609375	-1102.37744140625	-335.6246948242188	1670.231323242188	-958.0874023437502	-393.4791870117189	1506.789672851563	-1032.75439453125	-406.3357238769532	1226.4111328125	-1026.016967773438	-250.7032165527344	1480.661499023438	-1042.105834960938	-314.7692260742188	1525.248779296875	-1182.941772460938	-173.5940399169922	1455.850952148438	-1334.387084960938	-140.7863464355469	1488.22998046875	-1313.038330078125	-106.6548767089844	1460.863891601563	-1353.25439453125	-44.18917083740235	1461.308959960938	-1364.12060546875	-33.48468399047852	1386.113647460938	-1341.2939453125	240.6938018798829	1457.655883789063	-1256.594482421875	251.5107116699219	1463.939697265625	-1327.091186523438	315.2413635253907	1490.507568359375	-1241.476440429688	-303.9708557128907	1518.014038085938	-899.7803955078127	-151.3063354492188	1485.223999023438	-777.090270996094	-114.9841995239258	1498.117431640625	-807.3884277343752	-83.84921264648439	1480.149291992188	-758.3502197265626	-10.22199535369873	1477.664184570313	-746.8690185546876	-3.285519838333131	1400.567138671875	-768.1042480468752	264.7880554199219	1484.278442382813	-834.3208007812502	276.9407348632813	1492.131103515625	-764.8008422851564	341.8704223632813	1523.566040039063	-837.4899902343752	-238.2464599609376	1022.744140625	-1119.9091796875	-267.3746337890626	1046.01123046875	-872.040710449219	-419.1539916992189	1086.161010742188	-1018.820129394531	-430.1045227050782	1055.148315429688	-1046.46533203125	-435.9092407226564	1058.604125976563	-989.666442871094	-228.2086791992188	707.9631347656251	-1164.183471679688	-185.7923126220703	634.2869262695314	-1151.994018554688	-143.7624664306641	647.8452148437501	-1127.046142578125	-207.1702880859376	581.8818359375001	-1133.5703125	-199.9250640869141	522.6786499023439	-1120.6708984375	-195.6391754150391	525.0341796875001	-1003.200500488281	-208.9735565185547	341.0492553710938	-1028.510864257813	-259.2027282714844	303.8478698730469	-1091.443115234375	-225.6956024169922	293.3120422363282	-1059.510009765625	-261.6992492675782	225.1780700683594	-1023.513061523438	-377.8441162109376	119.2887496948242	-1037.41943359375	-338.4645385742188	133.2867584228516	-964.6911621093752	-432.8531494140626	100.8601303100586	-980.5994262695315	-233.6025848388672	45.50904083251954	-974.6007080078127	-225.4939880371094	45.46141433715821	-1024.656616210938	-270.2884216308594	36.2555160522461	-1071.281127929688	-313.9412841796876	777.116149902344	-798.9169921875002	-278.1005859375001	721.4240112304689	-786.3640747070315	-244.9854736328126	721.8940429687501	-788.4024658203127	-306.8319091796876	640.3997192382814	-792.7285766601565	-306.6895141601563	534.0190429687501	-801.660583496094	-294.9302062988282	520.7057495117189	-913.9505615234377	-423.5382385253907	408.9984436035157	-833.3845214843752	-533.4282226562501	445.944061279297	-824.9652099609377	-509.209686279297	405.3814697265626	-823.648864746094	-544.0122680664064	369.6595764160157	-857.1971435546877	-679.1431884765626	378.8073730468751	-856.664245605469	-648.9376831054689	341.4120788574219	-924.9807739257815	-705.8450927734376	419.3588867187501	-937.9539184570315	-710.3840332031251	205.6998291015626	-900.652038574219	-722.7359619140626	213.2489471435547	-855.3476562500002	-757.3079223632814	258.2857971191407	-828.1052856445315	nan	nan	nan	nan	nan	nan	
